<svg version="1" xmlns="http://www.w3.org/2000/svg" width="3306.667" height="3306.667" viewBox="0 0 2480.000000 2480.000000"><path d="M1986.7 718.6c-.3.3-2.4.7-12.9 1.9-5.9.7-15.4 2.3-20.8 3.5-2.5.6-5.4 1.2-6.5 1.4-1.1.3-5.6 1.6-10 3s-8.3 2.6-8.7 2.6c-.4.1-4.5 2-9 4.2-4.6 2.3-8.5 4.2-8.8 4.2-.3.1-1.9 1.1-3.7 2.4-1.7 1.2-3.6 2.2-4.1 2.2-.6 0-1.2.3-1.4.7-.1.5-2.8 2.7-5.8 5-10.5 8-18 16.3-24.8 27.4-4.5 7.4-10.4 20.8-9.7 22 .3.4.1.9-.3 1.1-.7.2-2.7 7.8-6.1 22.8-.9 3.7-.7 52.8.2 58 .4 2.5 1.2 6.7 1.7 9.5.5 2.7 1.1 6.1 1.4 7.5.2 1.4.9 3.7 1.4 5.1.6 1.5.9 2.9.6 3.2-.3.2 0 1.5.5 2.8.6 1.3 2.2 6.4 3.7 11.4 1.5 4.9 3.7 11.2 5 14 1.2 2.7 2.8 6.5 3.5 8.2.8 1.8 1.7 3.3 2.1 3.3.5 0 .8.6.8 1.4 0 1.4 10.9 18.2 15 23 7.4 8.7 20.7 21.1 31 28.9 3.5 2.7 16 10.7 22.8 14.6 20.4 11.8 67.8 33.2 69.6 31.4.3-.4.6-.1.6.5 0 .7.8 1.2 1.8 1.2s2.3.5 3 1.2c.7.7 1.2.9 1.2.6 0-.6 40.9 13.1 48.5 16.2 1.7.7 3.9 1.4 5 1.5 5.2.8 42.2 17.6 43.7 19.9.4.6.8.8.8.4 0-1.4 16.6 9.8 25.4 17.2 7 5.9 18.6 19.5 18.6 21.9 0 .5.3 1.1.8 1.3 2.2 1 11.6 23.8 12.7 30.8.2 1.4 1.2 7.3 2.3 13.2 2.4 13.6 2.3 34-.3 44.2-4.6 18.2-18.4 33.8-37.7 42.5-17.2 7.8-26.6 9.3-59.8 9.4-11.7.1-25.6-1.1-33.5-2.7-8.2-1.7-17.2-3.9-18-4.5-.5-.3-1.2-.6-1.5-.7-6.6-1.2-25.4-10.5-35.8-17.5-4.2-2.9-7.9-5.5-8.2-5.8-.3-.3-2.7-2.4-5.4-4.5-8.2-6.6-20-18.8-27.1-28-1.6-2.1-4.6-5.7-6.6-8-4.5-4.9-4.1-5-19.5 6.1-6 4.4-11.9 8.5-13.1 9.1-1.2.7-2.7 1.8-3.5 2.5-.7.7-6.2 4.7-12.3 8.9-6 4.3-12.5 9-14.2 10.5l-3.3 2.8 2.1 4.5c1.6 3.6 9.9 18.1 16.2 28.5 5.4 8.8 20.2 24.6 33.7 35.9 4.7 3.9 8.7 7.3 9 7.6.3.3 1.3.9 2.2 1.5.9.5 3.4 2.2 5.5 3.6 8.1 5.5 13.1 8.5 20.8 12.4 7.1 3.6 18.9 8.9 20.5 9.1.3 0 1.6.5 3 1.1 7.7 3 36.3 12.3 40 12.9 1.4.3 3.2.7 4 .9.9.3 4.7.9 8.5 1.4 7.7 1.1 11.7 1.8 15.5 2.8 1.4.3 5 .7 8 .9 8.4.5 54.9.6 60 .1 13.2-1.4 17.8-2 31.5-4.8 17-3.3 28.7-7.1 42.5-13.6 26.1-12.4 46.9-32.5 58.3-56.3 5.1-10.9 10.6-28.1 12.3-38.5.3-2.2.9-5.8 1.3-8 .9-4.9.7-41.2-.3-47.5-.4-2.5-.9-5.9-1.2-7.5-.3-1.7-.7-5-.9-7.5-.4-4.2-1.7-10.4-4.5-21-.6-2.5-1.3-5.2-1.5-6-1.5-6.6-8-27-10.5-33-7.1-17-14.6-30.9-20.7-38.5-14-17.3-23.8-27.5-35.8-37.2-3.3-2.6-6.1-5.1-6.3-5.6-.2-.4-1-.7-1.7-.7s-1.5-.4-1.7-.9c-.3-1-14.6-10.3-22.8-15-7.1-4.1-31.3-16.2-36.5-18.3-7.6-3.1-25.4-9.5-28.5-10.3-.3-.1-1.2-.4-2-.7-.8-.3-3.1-1-5-1.6-1.9-.6-7.5-2.3-12.5-3.8-4.9-1.5-9.2-2.9-9.5-2.9-.3-.1-1.2-.4-2-.8-.8-.3-6.9-2.4-13.5-4.6-6.6-2.2-14.7-4.9-18-6.1-3.3-1.2-6.7-2.4-7.5-2.5-4.5-1.1-28.5-10.8-35-14.2-29.8-15.5-44.9-32.6-52-58.5-2.7-10.2-3.1-13.3-3.5-30.3-.4-16.6.5-24.3 3.7-31.9 2.5-6 8.1-14.3 11.5-16.9 1.3-1 3-2.6 3.9-3.5.9-.9 3-2.4 4.8-3.4 4.8-2.8 14.5-7.8 15.1-7.8.3 0 1-.2 1.7-.5 5-1.7 13.2-3.6 16.9-4 2.4-.3 5.5-.7 6.9-1 4.3-.9 19.1-1.8 27.5-1.8 21.7.1 49 6.4 65.8 15 13.9 7.2 30.1 21 37.7 32.3.8 1.2 2 2.8 2.6 3.4.5.6 1.3 1.9 1.7 2.8 1 2.7 5.2.9 18.7-8.2.8-.5 4.9-3.1 9-5.7 14.5-9 30-19.3 30-19.9 0-1.1-14-21.1-20.3-28.9-13.1-16.2-30.2-29.5-52.2-40.5-24.6-12.3-48.1-19.5-70.5-21.5-1.9-.2-3.5-.4-3.5-.5 0-1-62.8-2.4-63.8-1.4zM1613 720c0 .3-3.7.5-8.3.5-10.1-.1-21.1 1-29.7 2.9-3.6.8-8.1 1.8-10 2.1-37.5 6.4-72.9 26.5-99.3 56.4-4.4 5-15.2 20.2-17.8 25.1-1.3 2.5-2.7 4.7-3 5-.6.4-6.9 13.3-7.4 15-.1.3-1.1 2.7-2.3 5.3-1.2 2.7-2.2 5-2.2 5.2 0 .1-.7 2-1.6 4.1-.9 2.2-1.6 4.1-1.7 4.4 0 .3-1.1 3.6-2.4 7.5-1.3 3.8-2.5 7.9-2.8 9-.2 1.1-2 8.3-3.9 16-1.9 7.7-3.7 15.8-4.1 18-.3 2.2-1.2 8.5-2.1 14-.8 5.5-1.7 10.7-1.9 11.5-1.1 3.7-2.6 20.4-3 32-.1 4.7-.5 14.1-.9 21-1.5 24.4-1.1 56.9 1 81.5.5 4.8 1.1 15.6 1.8 29.5.2 3.6.4 6.5.5 6.5.1 0 .4 2.2.7 5 .2 2.7 1.1 9 1.9 14 .9 4.9 1.8 10.6 2.1 12.5.3 1.9.7 4.6 1 6 .3 1.4.7 5 1 8 .2 3 1.3 8.8 2.4 13 1 4.1 2.1 8.6 2.4 10 1.1 5.7 1.6 7.5 3.1 12 .9 2.6 1.8 6.4 2 8.4.3 2.1.8 4.3 1.2 5 .4.6.9 1.9 1 2.9.4 2.2 4.1 14.5 5.3 17.2.5 1.1 1.2 3.1 1.5 4.5.4 1.4 1.3 3.8 2.1 5.5.7 1.6 2.2 5.5 3.3 8.5 2.9 8.2 6.5 16.5 7.4 16.8.4.2.7.9.7 1.6 0 3.6 16.6 31.3 26.4 44.1 10.2 13.4 28.9 32.3 35.4 35.9 1 .5 1.9 1.2 2.2 1.6.3.3 2.5 2 5 3.7 19.3 13.3 37.4 21.1 62 26.8 8 1.9 16.1 3.6 18 3.9 1.9.3 5.1.8 7 1.1 9.9 1.5 53.9.8 63.3-1.1 1.2-.2 4.2-.7 6.7-1 2.5-.3 7.7-1.5 11.5-2.5 3.9-1.1 8.1-2.2 9.5-2.5 1.4-.3 7.5-2.5 13.7-4.9 18.2-7.1 28.3-12.5 40.2-21.4 4-3.1 8.4-6.3 9.7-7.2 1.3-.9 2.2-1.8 2-2-.2-.2 1-1.5 2.7-2.8 1.8-1.4 5.5-5.1 8.2-8.4 9.6-11.4 10.5-12.2 12.1-10.5.8.7 1.6 3.4 1.8 5.8.2 2.5 1.1 8.3 2 13 .9 4.7 1.9 10.3 2.1 12.5.3 2.2.8 5.1 1.1 6.5.2 1.4.6 3.9.8 5.7.2 1.8 1 4.6 1.7 6.3l1.4 3.2 25-.7c13.8-.4 29.3-.9 34.5-1 5.2-.2 11.6-.4 14.3-.4 4.4-.1 4.7-.3 4.2-2.4-.6-2.4-1-6.7-2-22.2-.3-5.5-.8-10.7-1-11.5-.3-.8-.7-3.3-1-5.5-.3-2.2-.7-5.4-1-7-1-6.9-2.3-20.4-3-32.5-.3-4.7-.9-10.5-1.5-13-1.3-6.2-1.8-9.2-2.5-18.5-.4-4.4-.9-9.4-1.1-11-.3-1.7-.7-5.7-1-9-.2-3.3-.7-8.3-.9-11-.2-2.8-.6-6.1-.9-7.5-.3-1.4-.7-4.3-1.1-6.5-.3-2.2-.7-5.4-1-7-1.2-7.9-1.9-14.8-3-30.5-.2-3-.4-5.5-.5-5.5-.1 0-.3-1.3-1.4-10.5-.3-2.5-.8-5.4-1-6.5-.7-3.7-1.7-13.9-2.1-22-.3-4.4-.7-9.6-1-11.5-.3-1.9-.8-4.6-1-6-.2-1.4-.7-5.9-1-10-.3-4.1-1.2-11.7-2-17-.8-5.2-1.6-11.1-1.9-13-.2-1.9-.5-3.5-.6-3.5-.2 0-.7-6.5-.9-12.3l-.1-4.3-51.7.6c-28.5.4-77.2.8-108.3 1-31.1.1-57.5.3-58.6.4-2 .1-2.2.5-1.8 6.7.1 3.6.5 8.9.8 11.7.3 2.9.8 9 1.2 13.7.5 8 1 13.3 1.8 22.5.2 2.2.7 8 1.1 13 .3 4.9.9 9.3 1.1 9.7.3.5 31.4.8 69.1.7 73.2-.1 70.1-.3 70.4 4.6.1 1.1.3 2.9.5 4 .6 3.3 1.3 10.5 1.8 18.4.5 7.2 1.2 12.8 2.1 18.1.8 4.5 1.9 23.4 1.8 30.5-.1 20.1-18.4 50-39.3 64.6-1.9 1.3-3.7 2.7-4 3-.3.3-5.2 2.9-11 5.8-25.1 12.3-57.8 15.8-85 9-4.7-1.1-9.4-2.2-10.4-2.4-3.9-.9-12.2-3.8-16.1-5.8-2.2-1.1-4.1-1.9-4.3-1.8-1.6 1-20.1-12.1-29.7-21.1-8.5-8-21.5-23.5-21.5-25.7 0-.6-.3-1.1-.7-1.1-.5 0-1.6-1.5-2.7-3.3-5-8.8-16.6-32.9-16.6-34.5 0-.5-.9-2.6-1.9-4.8-3.5-7.2-9.2-25.7-10.4-33.9-1.2-7.4-2-11.3-3.2-15.5-1.3-4.3-3.4-15.9-4-22.5-.2-1.7-.4-3-.5-3 0 0-.3-2-.5-4.5s-1.3-9.7-2.4-16c-2.3-12.6-3.1-21.6-3.5-38.7-.1-6.2-.5-11.6-.9-11.9-.3-.4-.2-1.5.4-2.5.6-1.3.6-1.9 0-1.9s-.8-.6-.5-1.3c.9-2.3 1-9.8.2-10.3-.5-.3-.4-1.4.2-2.4.6-1.2.7-2.1 0-2.5-.6-.4-.6-1.5 0-3 .6-1.7.6-2.5-.1-2.5-.6 0-.7-.5-.4-1.1.7-1 .7-3.3.2-20.7-.1-5 .2-9.2.6-9.2.4 0 .3-.8-.2-1.9-.6-1-.7-2.2-.3-2.5.4-.4.7-2.9.8-5.4.4-14.6 1.7-28.4 3.1-33.7.8-3.3 1.7-7.1 1.9-8.5.2-1.4.7-4.1 1-6 .4-1.9.8-4.6 1-6 .5-4.2 2.6-12.3 4.2-16 .8-1.9 1.4-3.7 1.4-4 .1-1.2 3.1-9.5 5.5-15 6.3-14.4 13.8-25.5 24.8-36.5 5-5 9.9-9.7 11-10.5 2.8-2.1 15.5-10 16.1-10 .3 0 2.9-1.1 5.7-2.3 2.9-1.3 6.6-2.8 8.2-3.2 1.7-.5 3.3-.9 3.8-1 .4-.2.8-.3 1-.4.1-.2 1.3-.4 2.7-.7 1.4-.2 6.8-1.4 12-2.5 9.5-2 30.7-2.8 40.5-1.4 2.2.3 5.4.7 7 .9 1.7.2 4.1.6 5.5 1 1.4.3 3.6.8 5 1 23.6 4 47.6 19.2 64 40.7 3.5 4.5 12 17.9 11.4 17.9-.2 0 .5 1.8 1.6 4s2.4 4 2.9 4c1 0 15.9-5.4 20.1-7.2 1.4-.7 2.7-1.2 3-1.3 4.8-1.5 28.9-11.6 39.3-16.4 3.7-1.8 6.7-3.6 6.7-4.2 0-1.7-12.8-27.2-15.4-30.8-1.4-1.9-2.6-3.9-2.6-4.3 0-.5-.5-1.4-1-2.1-.6-.7-3.7-4.8-6.9-9.2-5.4-7.3-17.3-20.1-23.2-25-6.2-5.2-15-11.5-20.6-14.9-20.1-12.1-51-23.5-68.1-25.2-5.3-.5-7.5-.9-12.7-2.2-3.4-.9-8.4-1.5-23.1-2.7-1.1-.1-2.5-.4-3.1-.8-.7-.4-1.4-.4-1.7.1-.6.9-5.9.8-7.5-.3-.6-.3-1.1-.1-1.1.6 0 1-.3 1-1.1.2s-2-.8-3.4-.3c-1.3.5-2.5.6-2.8.3-.7-.7-7.7-1-7.7-.3zM450 729.1c-4.7 1-10.5 2-13 2.3-4.1.5-6.6.9-12.5 2.1-1.1.2-4.7 1.1-8 2-5.7 1.6-11.2 3.1-14.5 4-.8.2-1.5.4-1.5.5 0 .1-.7.3-1.5.5-9.2 2-34.9 15-47.2 23.9-15.4 11-29.5 25.2-38.3 38.6-1.7 2.5-3.6 5.1-4.2 5.8-.7.7-1.3 1.9-1.3 2.7 0 .7-.4 1.5-.8 1.7-2.3.9-17.7 35.3-19.7 43.8-1.4 6.1-4.7 20-5.2 22-.7 2.7-1 4.2-1.7 8-.2 1.4-.5 2.5-.6 2.5-.1 0-.3.9-.4 2-.2 1.1-.6 4-1.1 6.5-1.5 8.2-1.5 9.4-1.6 26.5-.1 17.9 1.5 30.5 5 40.6 9.1 26.1 24.5 44.3 53.9 63.3 5.6 3.6 10.5 6.6 10.8 6.6.3 0 2.9 1.6 5.9 3.5 3 1.9 5.5 3.3 5.5 3 0-.2 2.1.8 4.8 2.3 2.6 1.5 6.3 3.5 8.2 4.4 1.9.9 6 2.7 9 4.1 7.1 3.3 18.1 7.7 20 8.2 1.8.4 14.3 5 29.5 11 45.4 17.8 68.8 34.5 79.8 57 3.8 7.7 5.5 13.9 6.3 23 1 10.3.4 24-1 26.4-.4.5-.9 4-1.2 7.8-.5 6.8-6 25.8-9.1 31.7-.9 1.7-1.8 3.6-1.9 4.2-.4 2.4-10.2 16.1-15.6 22-5.5 5.9-19.4 16.4-21.7 16.4-.6 0-1.1.3-1.1.7 0 .5-2.7 1.9-6 3.3s-6 2.8-6 3.1c0 .3-.6.6-1.2.7-.7.1-5.2 1.5-10 3.1-14.7 5.1-22.1 6-47.4 6.2-19.6.2-21 .1-33.4-2.6-4.1-.9-9-1.8-10.8-2.1-6.8-1.1-20.2-6.6-29.3-12.1-17.5-10.5-35.2-31.3-44.4-52.1-2.2-4.8-3.2-6.2-4.9-6.2-1.2 0-2.6.4-3.2.9-.5.5-3.6 2.5-6.9 4.4-12.7 7.2-31 18.1-31.5 18.6-.3.3-1.6 1.2-3 1.9-9.5 4.9-26.6 16.1-27.6 18-2.1 4.1 2.9 23.4 10.1 39 14.6 31.4 45.8 57.9 83 70.3 5 1.7 9.9 3.2 10.9 3.4 1.1.3 4.7 1.3 8 2.3 10 3.2 14.9 4.1 29.1 5.8 2.8.3 5.3.8 5.6.9 3.3 2.1 59.1 2.4 67.9.4 1.9-.4 5.4-1 7.8-1.3 11.1-1.5 12.7-1.8 13.5-2.3.5-.3 2.9-.7 5.2-.9 2.4-.2 7.4-1.1 11.2-1.9 3.7-.9 7.5-1.8 8.4-2 4-.8 23.4-7.7 24.6-8.7.7-.6 1.3-.7 1.3-.3 0 .4 1.1 0 2.5-.9 1.3-.9 3.1-1.6 3.8-1.6.8 0 2-.7 2.7-1.5.7-.9 1.5-1.3 1.8-1.1.4.5 2.9-.8 15-7.6 24.2-13.5 48.3-37.2 63.1-61.9 2.8-4.6 5.4-8.9 5.9-9.4.4-.6 2-3.7 3.5-7 1.6-3.3 3.3-6.9 3.9-7.9 2.1-4 12.8-37.3 14.3-44.9.3-1.5.7-3.7 1-5 2.1-10.4 4.7-30.1 5-38.9.2-5.9.6-11.2.9-11.7.4-.5.2-1.2-.4-1.6-.7-.4-.7-1.2 0-2.6.6-1 .7-1.9.3-1.9-.4 0-.8-3.5-.9-7.8-.1-9.5-.8-16.5-2.8-26.2-.8-4.1-1.7-8.6-2-10-1.4-7.6-11.8-29.4-17.8-37.3-1.6-2-2.8-3.8-2.8-4.1 0-.8-3.5-5-11.5-13.4-6.6-7-24.3-21.2-30.3-24.3-1.5-.8-2.9-1.6-3.2-1.9-1.7-2-25.5-14.2-30-15.5-.3-.1-2.3-.9-4.5-1.9-2.2-.9-7.2-2.8-11-4.1-3.9-1.3-8.1-2.8-9.5-3.3-2.3-1-5.8-2.3-7-2.7-.3-.1-1.8-.5-3.5-1-1.6-.5-6.1-2.1-10-3.7-3.8-1.6-7-2.8-7-2.7 0 .5-36.7-14.2-44.3-17.7-15.5-7.3-30-18.5-37.3-29.1-5.6-8-9.2-21.4-9.1-33.8 0-4.3 2.1-19.3 3.4-24 .5-2.2 1.2-5 1.4-6.3.6-2.9 5.4-18.4 6.2-19.7.4-.6.7-1.5.8-2 .3-2.1 7.8-13.7 11.7-18.1 2.3-2.6 6.8-6.9 10.1-9.6 3.4-2.6 6.7-5.3 7.4-5.9.6-.5 1.2-.7 1.2-.5 0 .3 1.6-.6 3.6-1.9 2-1.4 4.2-2.5 4.8-2.5.6 0 2.7-.9 4.7-1.9 3.8-2 12.7-5 16.9-5.6 1.4-.2 4.1-.6 6-1 1.9-.3 6-1 9-1.5s7.1-1.2 9-1.5c5.2-.9 32.6-.9 39 0 3 .4 9.8 1.9 15 3.2 5.2 1.3 10.6 2.7 11.9 2.9 1.3.3 3.6 1.1 5.1 1.9 1.5.8 3 1.1 3.4.8.3-.4.6-.1.6.5 0 .7.6 1.2 1.4 1.2 2.5 0 14.9 8.9 20.5 14.8 5.1 5.3 10.1 12.4 12.9 18.2 1.5 3.2 3.4 8.4 3.2 8.9-.1.2.4.7 1 1.1 1.3.8 8.4-2.7 40.8-20.1 10.1-5.5 18.6-9.9 18.9-9.9 1.4 0 6.3-4.3 5.8-5.1-.4-.5-.2-.9.4-.9.9 0-.7-5.3-5.1-17-2-5.2-8.3-16.4-13-22.8-4.1-5.7-20.4-22.2-21.9-22.2-.4 0-1.4-.7-2.3-1.5-3.3-3.3-25.2-15-30-15.9-.6-.2-2.2-.7-3.6-1.3-4.6-1.9-19.5-6.2-23.5-6.8-2.3-.3-5-.7-6-.9-1.1-.2-5.1-.7-9-1.1-3.8-.4-9.6-1.3-12.7-2-3.5-.8-5.8-.9-5.8-.4 0 .6-.6.7-1.2.3-1.7-1.1-14.8-1.1-14.8-.1 0 .5-.6.5-1.2 0-1.7-1-6.9-1.1-9-.1-.9.5-1.9.5-2.1.1-.6-1-16.4-.9-17.4 0-.3.4-1.1.3-1.7-.1-.6-.5-4.9-.1-9.6.9zM1315.6 731.7c-.3.4-5.7.7-11.9.8-16.8.3-16 .2-15.4 2.5.3 1.1.1 2.3-.4 2.6-.5.3-.5 1.2.1 2.3.6 1.2.5 2.2-.1 2.8-.8.8-.7 1.7 0 3.2.7 1.2.8 2.1.4 2.1s-.8 1.6-.8 3.5.3 3.5.6 3.5c.4 0 .3 1.6-.1 3.5-.4 2-.4 3.8.1 4.1.5.3.6 1 .2 1.7-.8 1.4-.9 5.8 0 8 .3.9.3 1.7-.1 1.7s-.7 1.3-.7 3c0 1.6.2 3 .5 3s.5 16.5.5 36.8c-.1 20.2.2 39 .6 41.9.9 6.5 1.5 284.6.6 288.8-.3 1.6-.9 5.7-1.2 9-.7 6-1.1 9.4-1.9 15-.5 3.6-8.5 29.9-11.5 38.1-1.2 3.2-3.3 7.8-4.7 10.1-1.4 2.4-2.4 4.6-2.3 4.9 0 .4-.3 1-.8 1.3-.5.3-2.3 2.6-4 5.1-3.8 5.6-13.4 15.6-18.8 19.5-2.2 1.7-4.2 3.3-4.5 3.6-1.3 1.6-18.2 9.1-23.5 10.5-8.9 2.3-8.4 2.2-22 3.9-5.3.7-33.2.7-37 0-1.6-.3-4.6-.8-6.5-1.1-1.9-.4-4.4-.8-5.5-.9-9.5-1.4-29.1-10.2-37.7-17-14.6-11.4-26.5-31.7-32.4-55-.8-3.1-5.5-26.5-6-29.5-2.9-20.1-3.3-47.3-1-80 .1-1.4-.3-3.1-.8-3.8-.6-.8-.6-1.6 0-2 1-.8 1.2-8.2.2-9.8-.4-.6-.4-1.4-.1-1.8.4-.4.8-7.7 1-16.4.1-8.6.4-18.6.7-22.2.3-3.6.8-16.4 1.1-28.5.2-12.1.7-25.6 1.1-30 .3-4.4.8-18.8 1-32 .2-13.2.6-29 .9-35 .4-6.1.8-23.6 1-39 .3-25.2.6-31.6 1.9-40.8.2-1.5-.2-2.7-.7-2.7-.7 0-.7-.4 0-1.1.8-.8.8-2 .3-3.4-.5-1.3-.6-2.5-.3-2.9 1-1 .9-8.6-.1-8.6-.7 0-.8-.3-.1-.8.6-.4 1.1-6 1.1-12.7.1-6.6.5-22.2.9-34.6l.7-22.6-44.9.1-44.8.1-.1 2.5c-.1 1.4-.4 5-.7 8-.9 8.2-1.6 19.6-2.3 37.5-.3 8.8-.7 17.6-.9 19.5-.2 1.9-.6 9.8-.9 17.5-.4 7.7-.9 17.4-1.2 21.5-.3 4.1-.7 14.7-.9 23.4-.2 8.8-.7 16.6-.9 17.3-.3.8-.8 6.5-1.1 12.6-.3 6.2-.8 16.4-1.1 22.7-.3 6.3-.8 17.6-1 25-.2 7.4-.6 16.4-.9 20-.4 3.6-.8 12.8-1 20.5-.1 7.7-.6 17.8-.9 22.5-.9 13.6-1.5 26.4-2.2 43.5-.3 8.8-.7 17.6-1 19.5-.2 1.9-.6 10-.9 18-.4 8-.7 15.6-.8 17-.2 1.4.1 3.2.5 4.1.4.9.4 1.9.1 2.3-.8.8-.8 6.8 0 8.9.3.9.2 1.9-.3 2.2-.7.4-.7 1.3 0 2.4.5 1 .6 2.1.3 2.5-.8.8-.8 6.8 0 8.9.3.9.2 1.9-.3 2.2-.7.4-.7 1.3 0 2.4.5 1 .6 2.1.3 2.5-.4.3-.6 2.5-.5 4.9.3 6.3.3 18.1.1 19.2-.1.5 0 1.4.1 2 .1.5.3 2.8.5 5s.6 5.3.9 7c1.3 7.7 2.7 17.2 3.2 22.3 1.3 13.1 1.6 15.1 4.3 24.1 2.2 7 2.6 8.7 3.7 13.8.8 4.1 6.6 19.8 9.5 26.1 6.1 12.7 17 30.7 21.9 35.9 1.1 1.2 2 2.5 2 2.8 0 1.3 16.5 16.8 22.8 21.5 3.7 2.7 7.2 5.3 7.7 5.8 1.2.9 10 6 17 9.7 12 6.3 39 15.4 46.9 15.8 2.5.1 4.6.5 4.6.8 0 .3 3.3 1.1 7.3 1.7 3.9.6 8.3 1.5 9.7 1.9 1.4.3 17.7.8 36.4 1 33.8.4 37 .2 57.1-3.4 1.7-.3 3.8-.5 4.8-.5.9 0 1.7-.3 1.7-.8s.6-.7 1.4-.4c2.1.8 19.4-4.1 32.5-9.2 15.1-5.9 35.8-16.9 36.9-19.6.2-.4.8-.8 1.3-.8 1.1 0 .7.3 10.4-7.6 7.6-6.2 15.6-14.2 21.4-21.4 2-2.5 3.8-4.7 4.1-5 4.6-4.5 18.7-30.5 22.3-41 .8-2.5 2.5-6.7 3.6-9.4 1.2-2.7 1.9-5.1 1.6-5.4-.3-.3-.1-1 .4-1.6.5-.6 2.3-6.5 3.9-13.1 2.8-10.8 4-17 5.7-27.5.3-1.9 1-5.9 1.5-8.9.6-3 .8-5.6.5-5.9-.2-.3 0-1.3.5-2.2 1-1.8 1.2-3.7 2.7-22 1-12.5 1-59.6-.1-78-.4-8-1-29.8-1.2-48.5-.5-40.6-.6-45.5-1.6-45.5-.3 0-.3-1.4.2-3 .5-1.7.5-3 0-3-.4 0-.4-1.6 0-3.5.5-2.1.4-3.5-.2-3.5-.5 0-.6-.5-.3-1 1-1.6 1.4-12 .4-12-.4 0-.4-1.3.1-2.9.4-1.6.6-3.2.4-3.4-.9-.8-2.2-33.9-2.9-71.7-.3-15.1-.8-29.5-1-32-.3-2.5-.7-19.4-1-37.5-.6-39.2-1.1-51-2-52.4-.3-.6-.2-1.1.3-1.1s.6-1.7.2-4c-.4-2.2-.3-4 .2-4s.4-.9-.2-2c-.6-1.1-.7-2-.3-2 1.1 0 .9-11.7-.1-12.7-.4-.5-4.2-.9-8.4-1.1-4.2-.2-8.4-.3-9.2-.4-.8 0-3.3 0-5.5.1-2.2 0-7.8.1-12.5.1-4.7.1-8.9.1-9.5.2-.5.1-2.1-.2-3.4-.6-1.4-.5-2.1-.4-1.8.1.6 1-4.5.9-6.1-.1-.5-.3-1.2-.3-1.6.1zM683 736.5c0 .1-.5 2.7-1 5.6-1.4 7.2-1.8 9.8-2.5 20.3-.3 5-.8 9.3-1 9.6-.4.7-1.4 10-2 20.4-.3 3.9-.7 8.2-1 9.6-1.2 6.3-1.4 8-2 15.5-.8 11.9-1.7 19.9-2.1 20.7-.2.3-.6 3.9-.9 8-.3 4-.7 8.9-1 10.8-.9 6.5-1.2 9.7-3.5 33.5-.6 6-1.3 12.3-1.5 14-.3 1.6-.7 5-.9 7.4-.3 2.4-.7 5.1-1 6-.3.9-.8 5.2-1.1 9.6-1.5 18-2.5 28.7-2.9 29.4-.2.3-.7 3.5-1.1 7.1-.3 3.6-.8 7.8-1 9.5-.2 1.6-.7 6.6-1 11-.6 8.9-1.3 15.3-2.1 20.5-.3 1.9-.7 6-1 9-.5 7.3-1.1 11.7-1.8 12.8-.3.5-.8 5.4-1.1 10.8-.3 5.4-1 12.1-1.5 14.9-.6 2.7-1.2 8.6-1.5 13-.3 4.4-.8 10.2-1.1 13-.3 2.7-.8 6.6-1 8.5-.4 4.3-1.2 10.9-1.9 16.4-1.2 9.2-1.5 11.4-2.1 18.6-.4 4.1-.8 9.6-.8 12.2-.1 2.7-.4 4.8-.8 4.8s-.6 1.6-.4 3.5c.1 1.9-.1 3.5-.5 3.5-.3 0-.6.8-.6 1.7.1 1-.2 4.7-.7 8.3-.4 3.6-.9 8.1-1.1 10-.2 1.9-.7 7.5-1 12.5-.3 4.9-.8 11-1.2 13.5-.3 2.5-.7 5.4-.9 6.5-.1 1.1-.3 2-.4 2-.2 0-.5 3.4-1.5 17.5-.5 7.3-1.4 14.3-4.1 32-.3 1.9-.7 5.7-.9 8.5-.2 2.7-.5 5-.6 5-.1 0-.3 2.9-.4 6.5-.2 3.6-.4 6.5-.5 6.5-.1 0-.3 2-.5 4.5-.1 2.5-.8 8.1-1.5 12.5s-1.4 9.3-1.6 11c-.1 1.6-.3 3-.4 3-.3 0-2 19.4-2.4 26.5-.3 5.4-1.3 13.3-2.2 17.7l-.4 2.1 114.3-.4c62.8-.3 138.1-.6 167.4-.7 29.2-.1 53.4-.5 53.7-.8.3-.3.8-3.4 1-7 .3-3.5.5-6.4.6-6.4.1 0 .3-3.6.5-8 2.2-54.6 2.4-67 1.5-68.6-.6-.9-26.9-1.1-113.9-1l-113.1.2-1-2.6c-.6-1.5-.8-3.1-.5-3.6.7-1 1.2-5 2-15.9.9-11.8 1.5-18.2 2.1-22 .3-1.9.7-6.9 1-11 .3-6.7 1-15 1.9-23.5.2-1.7.6-8.2 1-14.5.3-6.3 1-13.3 1.5-15.5 1.2-5.5 1.6-12.3.7-13.1-.4-.4-.3-1.2.2-1.8.5-.6 1.2-5.8 1.6-11.6.3-5.8.8-12.1.9-14 .6-5.6 1.8-16.4 2.1-18 .1-.8.6-4.7 1-8.5.4-3.9.8-8.4 1-10 .2-1.7.7-7.7 1-13.5.4-5.7.9-10.8 1.1-11.2.3-.4 0-.8-.7-.8-.8 0-.8-.4-.1-1.3.6-.6 1.1-1.5 1.1-2 .1-.4.2-.8.2-1 .2-.3.6-8.3 1-16.2.1-3.3.6-7 1-8.1.4-1.2 1-7.5 1.4-14 .6-11.9.8-14.6 2-23.9 1.1-9.3 1.5-13 2-20.5.3-4.1 1.1-13.1 1.9-20 .7-6.9 1.3-13.6 1.4-15 0-1.4.2-4.1.5-6 1-5.9 1.9-15.1 2.2-24.1.2-4.7.9-10.7 1.5-13.2.5-2.6 1.2-8.6 1.5-13.5.3-4.8.7-12.8 1-17.7.3-5 .7-10.4.9-12 .5-3.3 1.3-11.6 2.1-21.5.3-3.6.7-7.6 1-9 .3-1.4.7-7.2 1-13 .3-5.8.7-12.1 1-14 .7-5.1 1.5-14.6 1.8-21.5.1-3.3.6-6.5.9-7.1.7-1 1.3-13 .9-17.5-.1-1.3-5-1.5-44.6-1.5-24.5 0-44.5 0-44.5.1zM1057.3 1381.1c-1.8.3-3.3.4-3.3.2 0-.3-.7 0-1.5.7s-1.5 1-1.5.7c0-.4-3 .5-6.7 1.9-3.8 1.4-7.5 2.7-8.3 2.9-2.2.5-15.6 6.3-19.5 8.5-10.8 6.1-14.5 9.6-14.8 14.3 0 1.2-.5 2.4-.9 2.7-1 .8-555.8-.3-770.1-1.5-33.4-.1-60.7 0-60.8.4-.6 3.6-.8 10.3-.9 32.3-.1 26.2-.3 27.4-4 27.6-7.3.5-15.4 1.2-20 1.6-13 1.2-17.8 1.6-22.5 2.1-11.4 1.1-15.3 1.5-20.5 2-3 .3-9.1.7-13.5 1-4.4.3-10.2.7-13 1-2.7.3-7.2.7-10 .9-5.6.5-26.6 2.4-33.5 3.1-2.5.3-8.1.8-12.5 1.1-15.7 1.1-16.3 1.3-18.6 5.6-.8 1.5-.1 3.6 3.5 10 2.5 4.4 4.6 8.5 4.6 8.9 0 .5.5.9 1 .9.6 0 1 .4 1 .9 0 1.2 10.3 19.5 11.2 19.9.4.2.8.8.8 1.3s1.9 4.2 4.1 8.2c2.3 4 5.4 9.4 6.9 12.2 1.5 2.7 3.8 6.8 5 9 3 5.2 8.3 14.6 14.9 26.5 2.9 5.2 6.8 12 8.7 15.1 4.1 6.8 4.2 8.6.8 17.5-1.4 3.8-2.7 7.3-2.9 7.9-.1.5-.5 1.7-.8 2.5-.3.8-3.8 10.7-7.7 22-3.9 11.3-8 23-9.1 26-1.2 3-2.2 6.2-2.4 7-.2.8-1.4 4.2-2.6 7.5-1.3 3.3-2.4 6.3-2.5 6.7-.1.5-.2.9-.4 1-.1.2-.3 1-.5 1.8s-2.9 8.7-6 17.5-5.8 16.4-5.9 17c-.2.5-.8 2.3-1.4 3.8-1.7 3.9-1.5 5 .9 6.5 1.6 1 2.4 1 3.5.1.8-.6 1.4-.8 1.4-.5 0 .4.8.3 1.8-.3.9-.5 7-1.2 13.6-1.6 6.5-.4 12.7-.8 13.6-1 1-.2 6.6-.6 12.6-1s12.5-.8 14.4-1c1.9-.2 7.8-.7 13-1 5.2-.4 10.6-.8 12-1 1.4-.2 6.3-.7 11-1.1 4.7-.3 9.6-.8 11-.9 8.9-.8 27.3-2.3 39-3.1 4.1-.3 9.5-.7 12-.9 2.5-.1 8.6-.6 13.5-.9 5-.3 10.6-.8 12.5-1.1 1.9-.2 6.9-.7 11-1 4.1-.3 9.1-.8 11-1 1.9-.3 7.8-.7 13-1.1 14.9-1 18.5-1.3 18.5-1.4 0-.1 2.5-.3 5.5-.5 7.1-.4 22.4-1.5 27.5-2 10.3-1 18.3-1.7 24.9-2.1 3.9-.3 9.1-.7 11.6-.9 2.5-.2 8-.6 12.4-.9 4.3-.3 10.1-.8 13-1.1 23.7-2.1 40.3-3.5 48.6-4 14.1-1 28.6-2.2 36-3 1.9-.2 7.1-.7 11.5-1 4.4-.3 10.3-.8 13-1 2.8-.3 9.1-.7 14-1 8.7-.6 17-1.2 26.5-2 2.5-.2 7.7-.6 11.5-1 3.9-.3 9-.7 11.5-1 13.4-1.4 33-3.1 47-4 8.1-.5 23.4-1.7 27-2 1.9-.2 7.3-.7 12-1 4.7-.3 10.1-.8 12-1 1.9-.2 7.8-.7 13-1.1 5.2-.3 11.1-.8 13-.9 1.9-.2 6.9-.6 11-.9 4.1-.3 9.8-.8 12.5-1 2.8-.3 8.4-.8 12.5-1.1 4.1-.3 9.5-.8 12-1 2.5-.2 9-.7 14.5-1 5.5-.4 12-.9 14.5-1.1 2.5-.2 8.3-.6 13-.9 4.7-.4 8.9-1.1 9.4-1.5.5-.5 1.9-.5 3.1 0 1.3.5 2.5.7 2.7.5.6-.6 26.2-3.2 40.3-4 10.4-.6 23.4-1.6 28.5-2 2.5-.3 8.1-.7 12.5-1 4.4-.2 9.8-.7 12-.9 24.3-2.9 83.7-5.3 86.6-3.5.5.3.8 3.2.7 6.5-.1 3.2.1 6.5.5 7.2.5.6.4 1.2-.1 1.2-1.4 0 .2 17.2 2.5 27 .8 3.6 1.6 7.4 1.7 8.5.1 1.1.7 3.6 1.5 5.5 5 13.4 12.2 22 22.3 26.8 5.7 2.8 7.1 3 16.5 3 5.7 0 10.5-.4 10.9-.9.3-.5.9-.7 1.4-.4.5.3 2.1 0 3.7-.6 1.5-.7 3.5-1.3 4.3-1.4 8.6-1.4 31.1-13.2 41.7-21.9 1-.8 3.8-3.1 6.3-5.1 7.1-5.8 15.2-12.8 26.1-22.6 3.9-3.5 7.9-6.8 8.8-7.3.9-.5 1.8-1.3 2.1-1.7.9-1.3 14.5-9.9 15.7-9.9.6 0 1.3-.4 1.5-.9.2-.6 10.2-5.8 12.8-6.6.3-.1 1.2-.4 2-.8 4.9-1.9 14.1-4.6 17.5-5.2 2.2-.3 5.1-.9 6.5-1.2 2.5-.5 37.5-1 103-1.4 38.6-.2 40.4-.1 57 5.8 13.2 4.7 31.6 15.6 40.7 24.2 1.5 1.4 8 7.1 14.3 12.6 6.3 5.5 12 10.5 12.5 11.1 3.9 4.3 23.4 18.5 25.1 18.3.4 0 1 .3 1.3.8 1.6 2.2 25.3 11.9 31.6 12.9 1.1.2 4 .8 6.5 1.4 4.3 1.1 13.6.9 19-.4 7.5-1.8 14-7.2 19.2-16.2 3.9-6.7 10.3-22.1 11.1-26.9.3-1.7 1.2-6.8 2.1-11.5 1.4-7.6 3-25.6 2.8-30.2 0-1 .2-2 .6-2.2 1.3-.8 62.4-.9 69.2-.2 6.4.7 14.1 1.4 23 2.1 2.5.2 7.7.6 11.5 1 3.9.3 9.7.8 13 1 6.3.4 14.8 1.2 22.5 2.1 2.5.2 7 .6 10 .9 3 .2 8.9.7 13 1 9 .8 14.6 1.2 26.5 1.9 5 .3 11 .8 13.5 1.1 8.3.8 24.4 1.8 30.7 1.9 3.5.1 6.3.4 6.3.7 0 .3 2.1.6 4.8.8 18.5 1 26.8 1.7 46.2 3.6 2.5.3 7 .7 10 .9 3 .3 8.2.8 11.5 1.1 7 .7 15.4 1.4 24.5 2 3.6.2 9.4.6 13 .9 3.6.3 10.1.8 14.5 1.1 4.4.3 9.6.8 11.5 1 1.9.2 6.2.6 9.5.9 3.3.3 8.5.8 11.5 1.1 9.2.8 25.4 2 41 3 5.2.3 10.5.7 11.7 1 3.5.6 24.4 1.9 31 2 3.5 0 6.3.2 6.3.5s1.9.6 4.3.7c4.9.1 20.2 1.1 20.2 1.3 0 0 2.9.3 6.5.5 3.6.3 10.8.9 16 1.5 5.2.6 12.9 1.2 17 1.5 6.8.4 11.6.7 30.5 2.1 15.5 1.1 24.6 1.9 33 2.9 5.9.7 23.8 2 40.5 3 4.7.2 10.8.7 13.5 1 2.8.3 7.3.7 10.2 1 2.8.2 7.8.6 11 1 12.3 1.2 16.1 1.5 25.8 2.1 23.8 1.4 33.6 2.1 40 2.8 17 1.9 32.9 3.2 49.5 4.1 4.1.2 11.1.7 15.5 1.1 4.4.4 9.7.8 11.7.8 2.1.1 3.8.3 3.8.6s1.5.6 3.3.6c1.7.1 7 .4 11.7.8 4.7.4 11.9.9 16 1.2 4.1.3 7.8.8 8.2 1 .7.4 12.2 1.3 25.3 1.9 26.1 1.2 31.7 1.5 37.8 2.1 3.8.3 7.7.7 8.7.9 3.1.6 24 1.5 24 1.1 0-.3-.5-1.7-1.1-3.3-.6-1.5-1.2-3.7-1.4-4.8-.1-1.1-1.4-6.1-2.9-11-4.3-14.1-6-19.9-6.2-21-.1-.6-2.1-6.4-4.4-13-2.3-6.6-4.4-12.7-4.5-13.5-.2-.8-.4-1.6-.5-1.8-.2-.1-.4-.7-.5-1.2-.1-.6-.3-1.1-.5-1.3-.1-.1-.3-.9-.5-1.7-.2-1.3-4.4-13.8-6.3-19-.3-.8-.6-2.2-.8-3.1-.2-.9-1.3-3.7-2.4-6.3-1.1-2.6-2-5.6-2-6.5 0-1-.3-2.1-.7-2.5-.4-.3-.8-1.6-1-2.8-.2-1.2-.7-2.6-1.2-3.2-1.7-2.4-4.2-12.6-3.6-14.8.4-1.3 9.1-19.2 19.3-39.8 10.2-20.6 18.6-37.7 18.7-38 .1-.3 4-8.4 8.7-18 4.7-9.6 9.5-19.7 10.8-22.5l2.2-4.9-2.5-2.2c-2.2-1.9-3.9-2.3-10.9-2.4-8.3-.1-17.3-.7-17.3-1 0-.2-1.1-.4-10-1.4-5.1-.5-20.1-2.6-24-3.2-1.6-.3-4.8-.7-7-1-4.3-.4-9.6-1-16-1.8-2.2-.3-6.7-.8-10-1.2-3.3-.3-6.9-.8-8-1.1-1.8-.3-10.6-1.5-21.5-2.9-2.5-.3-5.6-.7-7-1-1.4-.2-5.4-.6-9-1-3.6-.3-9.4-1.1-13-1.7l-6.5-1.2-.5-26.1c-.3-17.7-.9-26.5-1.7-27.5-1-1.2-65.4-1.4-444.6-1.4h-443.4l-1.2-4.6c-1.6-6-2.2-6.5-20.6-15.9-9.3-4.8-21.6-9.6-30-11.7-3.2-.8-34.2-1.6-36.9-.9-1.4.3-4.5 2.6-7 5.1-3 3.1-5.2 4.5-7.1 4.5-2.6 0-26.5 10.9-29.5 13.5-2 1.6-11.8 5.2-19.4 7.1-15 3.5-106.3 3.9-121 .4-2.2-.5-4.2-.8-4.5-.8-.3.1-1.3-.1-2.1-.5-.8-.3-4-1.4-7-2.5-3.1-1.1-11.7-5.2-19.2-9.1-8.1-4.3-15.8-7.5-19-8.1-3.5-.7-5.8-1.7-6.8-3.1-5-7-4.5-6.9-20.7-6.7-8.1.1-16.3.5-18 .9zM478 1431.5c141.6.3 305.2.8 363.5 1 58.3.2 115.8.4 127.8.5 20.3 0 21.7.1 20.8 1.7-1.6 3.4-7.2 16.8-7.6 18.3-.2.8-1.6 4.9-3.3 9-3.6 9.2-14.5 40.9-14.7 43 0 .9-.4 2-.7 2.5-.5 1-6.7 22.2-7.3 25.4-.4 2-3.5 14.9-4.2 17.6-1.4 5.5-8 40.5-8.8 47.5-.2 1.4-.6 4.3-.9 6.5-2.6 19.7-4 34.8-4.1 42.7 0 3.8-.3 6.8-.8 6.8-.4 0-.6.3-.6.7.1.5.1 1.3 0 1.9-.1.7-18.6 1.1-59.3 1.2-32.6.1-104.1.5-158.8.8-54.7.3-128.2.7-163.2.8-35.1 0-63.8.4-63.8.7 0 .3-2.3.3-5-.1-2.8-.4-5.3-.4-5.5 0-.2.4-2.5.4-5 0s-4.8-.3-5.1.2c-.3.5-1.2.4-2-.3-.8-.6-1.4-.8-1.4-.3s-31.6.9-71.8.9c-39.4 0-73.9.3-76.5.6-2.6.3-5 .2-5.3-.3-.3-.5-1-.6-1.5-.2-.9.5-11.9.8-14.4.3-.5-.1-1.4 0-2 .1-.5.1-25.4.3-55.2.4l-54.2.2.4-84.1c.2-46.2.4-98 .5-115.2l.1-31.2 2.7-.3c1.5-.2 8.8-.2 16.2-.1 7.4.1 129.4.4 271 .8zm1819.6 1.8c.8.8.6 40.7-.2 43.7-.4 1.4-.8 40.9-1 87.9-.2 47-.6 85.7-1 86-.3.3-16.4.6-35.7.7-19.4 0-135.5.4-258.2.9-122.6.4-256 .8-296.2.9-40.3 0-73.3.4-73.3.8s-.7.5-1.5.1c-2.3-.8-11.8-.8-13.3.1-.6.4-1.2.4-1.2-.1 0-.8-4-.8-20.3 0-3.8.2-7.1-.1-7.3-.5-.3-.5-1-.5-1.6-.2-1.3.8-93.2 1.1-95.5.3-1-.3-1.6-2.1-1.9-5.5-.5-8-1.5-18.8-1.9-20.9-.2-1.1-.7-4.7-1-8-.9-9.8-2-19.1-3-24.6-2.5-14.6-3.6-20.8-4-22.9-.3-1.4-.7-3.9-1-5.5-.2-1.7-1.3-6.8-2.4-11.5-1.1-4.7-2.2-9.6-2.5-11-.2-1.4-.5-2.5-.6-2.5-.1 0-.3-.9-.4-2-.2-1.1-1.3-5.6-2.5-10-1.3-4.4-2.8-10.3-3.6-13.2-.7-2.8-2.4-8.7-3.8-13-1.4-4.3-3.4-10.7-4.5-14.3-1.8-5.7-4.5-13.4-11.2-31.5-1-2.8-3.6-9.4-5.8-14.7-2.2-5.3-3.9-9.8-3.7-10 .6-.5 859.5-.1 860.1.5zm-916 14.8c1.7 1 4.3 3.7 5.8 5.8 11.5 16.5-8.1 37-25.2 26.4-7.3-4.5-10.1-10.9-8.7-20 1.1-7.5 7.1-12.7 16.4-14.3 5.3-.9 7.4-.5 11.7 2.1zm-322.8 15.3c1.9.4 6.1 2 9.3 3.7 17.8 8.9 26.2 28.2 19.8 45.4-6 16.4-18.8 25.7-35.9 26-4.7.1-9.2-.2-10-.6-.8-.4-3.7-1.8-6.5-3-6.2-2.8-14.6-10.6-17.1-15.9-1-2.2-2.1-4-2.4-4-.9 0-1.4-5.2-1.4-15 0-8.5.2-10.1 2.8-15.1 7.7-15.5 25.2-24.5 41.4-21.5zm167.5 9.6c8.7 4.1 14.8 14.1 14.9 24.7.2 14.4-15.5 29.2-29.4 27.9-14.1-1.3-26.9-14.2-27.2-27.1-.2-13.5 8.2-24.5 20.9-27.5 5.7-1.4 15.8-.4 20.8 2zm119.4 9.4c8.4 4.3 12.5 15.2 8.9 23.7-5.6 13-20.9 16.4-30.8 6.7-4.9-4.8-6.7-9.1-6.2-14.7 1.3-13.3 16.5-21.8 28.1-15.7zm68.8-.5c7 2.8 10.4 8.3 10 16.1-.4 8.4-1.4 11.6-5 15.3-11 11.3-31.9 2.2-31.7-13.8.1-13.6 13.9-22.7 26.7-17.6zm-248.1 3.5c3.3 3.7 4.5 8.1 4.3 15.2-.3 7.8-2.3 12.2-6.7 14.8-3.9 2.3-5.4 2-9-1.5-4.5-4.6-6.3-9.4-5.7-15.9.7-7.6 3.7-12.7 9.1-15.6 2.4-1.2 5.1-.3 8 3zm108.5-.7c1 1 2.3 2.8 2.9 3.9 2 3.9 3.4 14.2 2 15-.5.3-.6 1-.3 1.5.9 1.4-2.5 7.7-5.3 9.9-5.6 4.5-11.6.7-13.9-8.7-1.9-7.6.7-19.2 4.9-22.5 2.6-2 7.1-1.6 9.7.9zm101.1 37.8c0-1 6.5 2.7 9.3 5.4 10.1 9.3 6.4 25.6-7 31.5-5.5 2.4-11.3 1.7-16.7-2.1-5.9-4.2-8.4-9.2-8.3-16.7 0-3.4.3-6.3.7-6.6.3-.3 1.3-1.7 2.3-3.2 2.4-3.9 8-7.8 11.7-8.3 1.8-.2 3.5-.6 3.7-.9.3-.3 1.4-.1 2.4.5 1.1.5 1.9.7 1.9.4zm-235.3 29.7c.5.7.9 6.8.9 13.5l-.1 12.2h9.5c5.2 0 10.9 0 12.5.1 5.6.1 5.9.8 6 13.5.1 6.3-.2 12.1-.6 12.7-.6.9-4.8 1.3-13.3 1.4-6.9.1-12.9.5-13.4.8-.4.2-.7 5.7-.7 12.1.2 8.9-.1 12-1.2 13.1-2.1 2.1-19.6 2-21.3-.1-.9-1-1.3-5.4-1.4-12.9-.1-6.3-.4-11.8-.8-12.2-.5-.4-5.6-.7-11.4-.6-5.8.1-11.5-.3-12.5-.9-1.7-.9-1.9-2.2-1.9-12.8 0-9.2.3-12.1 1.5-13.1.9-.8 5.3-1.1 13-1.1 8.6.1 11.5-.2 11.7-1.1 0-.7.2-6.2.4-12.1.1-5.9.5-11.4.8-12.2.7-2 20.8-2.2 22.3-.3zm146.2 9.3c4.7.9 12.2 4.8 16.6 8.6 4 3.6 7.7 9.3 10 15.9 1.5 4.3 2.2 15.1 1.1 19.5-2 8.9-10.3 19.2-18.6 23.5-13.1 6.6-19.6 7-30.4 1.6-11.2-5.6-18.8-14.3-21.2-24.3-1.1-4.3-1.3-21.3-.3-21.3.5 0 .9-.7.9-1.6 0-3.8 9.8-14.5 17-18.4 7.8-4.2 15.2-5.2 24.9-3.5z"/><path d="M260.5 1477.2c-2.2.4-5.6 1.6-7.5 2.5-3.7 1.7-11.2 9.2-10.4 10.4.2.4 0 .9-.5 1.1-1.7.5-4.2 11.9-4.2 18.8-.1 11.1 2.6 19.6 8.4 27.5 1.7 2.2 8.7 9.6 15.7 16.5 15.9 15.8 19.3 22.5 17.4 33.7-.6 3.3-5 8.7-6.4 7.8-.5-.3-1.9-.1-3.2.4-2.7 1-6.4-.4-9-3.3-2-2.2-2-1.8-2.4-11.1-.1-3.9-.3-7.3-.3-7.8-.1-.4-4.9-.7-10.7-.7h-10.6l.5 9.1c.8 12.6 3 19 8.6 25 5.9 6.3 13.4 9.2 23.7 9.1 16.4-.2 27.9-8.8 31-23.1 1-4.8 1.2-15.9.3-20.6-2-10.6-6.3-17.1-21.5-32.2-17.6-17.6-20.1-22.1-19.5-34.8.3-7.1 8.4-11.3 15.4-8 3.9 1.8 5.4 5.4 5.2 12.7-.1 5.4-1.3 4.9 11.7 4.9 4.3 0 8.2-.2 8.6-.5 2-1.2-.4-18-3.4-23.8-3.2-6.2-10-11.5-16.9-13.3-4.6-1.1-15.5-1.3-20-.3zM321.5 1478.1c-.2.3-.4 31.1-.4 68.5l-.1 68 10.9.1 10.9.1.4-2.6c.1-1.5.3-14.7.2-29.5l-.1-26.7H367v58.7l11.2-.1 11.3-.1.1-67.5c0-37.1-.1-68-.3-68.5-.3-.8-14.3-1.2-21.3-.6-.6.1-1.1 11.1-1.2 29.3l-.3 29.2-10.8.1c-6 0-11.2-.2-11.6-.5-.4-.3-.7-13.5-.7-29.4v-28.9l-10.8-.1c-5.9-.1-10.9.2-11.1.5zM415 1477.8l-2.5.3v136.6l29.5-.1 29.5-.1.1-9.8.1-9.7-4.1-.1h-33.1V1575l-.1-20h29.4V1535.3l-12.1-.1c-6.7 0-13.3-.1-14.7-.1l-2.6-.1.2-17.8c0-9.7.2-18.2.2-18.7.1-.7 6.2-1.1 17.8-1 9.7 0 17.9-.2 18.3-.5 1.2-.8.9-19-.3-19.1-3.3-.2-53.5-.4-55.6-.1zM492.4 1477.9c-.2.2-.4 31.1-.4 68.6v68.2h11l11 .1v-56.3h27.5v-20l-12-.2c-6.6-.1-12.8-.2-13.8-.2-1.6-.1-1.7-1.6-1.5-20.4l.3-20.2 16-.1c8.8-.1 16.7-.2 17.5-.3 1.2-.1 1.5-1.9 1.5-9.8l-.1-9.7h-28.3c-15.5-.1-28.5.1-28.7.3zM568 1477.8c-.7.3-1 22.6-1 66.3 0 36.3-.2 66.4-.5 67-.4.5-.2.9.4.9.6 0 .8.6.5 1.4-.5 1.2 1.3 1.4 10.3 1.3l10.8-.2.2-26c.1-14.3.3-26.9.3-28 0-1.9.6-2 13.8-2l13.7.1v-20.1H589l.2-20.5.3-20.5H624v-9.8c0-7-.3-9.7-1.2-9.8-4.2-.3-54-.3-54.8-.1zM642 1546.1v68.7l11-.1 11-.1-.2-68.5-.3-68.5h-10.8l-10.7-.1v68.6zM688 1477.8c-.7.3-1 24-1 68.6v68.3h58.7l.2-9.8.1-9.9-4.2-.1c-2.4 0-10.7 0-18.5-.1-13.3 0-14.3-.1-14.4-1.9 0-1-.1-9.3-.1-18.4 0-9.1.1-17.2.1-18 .1-1.2 2.7-1.5 14.8-1.7l14.6-.3.1-2.8c.1-1.5-.2-2.7-.7-2.7-.6 0-.6-.5 0-1.3.8-1 .9-5 .4-11.4-.1-.8-4-1.1-13.3-1.1-7.3 0-14-.1-14.8-.1-1.3-.1-1.5-2.6-1.3-16.8.1-9.3.2-17.7.2-18.8.1-2 .6-2.1 18.4-2.1l18.2.1.3-9.8.2-9.7-2.7-.1c-8.8-.3-54.5-.3-55.3-.1zM768.3 1478c-1.7.5-1.8 3.7-1.7 67.5.1 36.8.2 67.5.3 68.1.1 1.1 56 1.7 56.2.5.7-3.5.4-18.3-.4-18.8-.5-.3-8.2-.5-17.2-.4-12.4.1-16.4-.1-16.7-1.1-.2-.7-.4-8.8-.3-18.1.1-11.2-.2-16.7-.9-16.7-.8 0-.8-.3-.1-.8.8-.5 1.1-13.8 1.1-40.5-.1-34.7-.3-39.7-1.6-39.8-7-.4-17.2-.3-18.7.1zM841.7 1478.2c-.9.5-1.2 17.1-1.1 67.5.1 36.7.2 67.3.3 68 .1 1.6 42.6 1.2 45.6-.4 1.1-.6 2.2-1.1 2.5-1.1 4.7-.4 11.5-6.6 14.7-13.5l2.8-6.2v-45c-.1-24.8-.3-46.3-.7-47.8-.8-3.9-3.9-10.7-5-10.7-.4 0-.8-.6-.8-1.3 0-1.4-8.8-7.7-11.6-8.2-1.1-.2-1.9-.4-1.9-.5 0-1.1-42.8-1.9-44.8-.8zm39.5 21.5c1.1 1 2.5 2.9 3 4.3.9 2.3 1.4 78.2.5 82-1.6 7-4.1 8.6-14.7 8.9l-7.5.2.1-47.8c.1-26.3.2-48.3.3-48.9.1-.8 2.7-1.1 8.2-.9 6.1.2 8.5.7 10.1 2.2zM2008.8 1477.5c-8.6 2.3-14.5 7.2-17.7 14.7-5.1 11.5-4.7 26.9.9 38.3 3.4 7 7 11.6 15.4 19.5 20.2 18.8 23 24 21.4 39.3-.2 2.8-5.8 6.9-8.5 6.4-1.3-.2-2.3 0-2.3.4 0 1.2-5.1-1.1-7.4-3.2-1.6-1.5-2.1-3.6-2.4-10.9l-.4-9h-21l.5 9.2c.7 13 1.5 16.2 5.8 22.1 6.9 9.5 18.8 13.6 33.2 11.3 16-2.5 24.6-13.7 24.8-32.3.2-18.1-3.4-25-23.7-44.9-14.3-14.1-17.4-18.8-17.8-27.4-.6-10.1 3.4-15.3 11.1-14.6 2.6.2 5.4 1.2 6.4 2.3 2 1.9 3.8 9.5 3.4 13.8-.4 2.7-.9 2.6 13 2.6h6.6c1.1-.1.8-12.7-.4-17.8-2.1-8.7-8.9-16.1-17.7-19.2-5-1.8-17.7-2.1-23.2-.6zM1516 1479.5c-.4 1.1-.4 2.1.1 2.3.4.2.4 1.4-.1 2.7-.6 1.5-.6 2.7.1 3 .5.4.6 1.2.2 1.8-.9 1.5-1 8.7-.1 8.7.4 0 .4 1 0 2.2-.9 2.6-.7 25 .2 27.3.3.8.2 1.7-.3 1.9-.6.4-.7 7.1-.1 10.1.1.5.1 1.2 0 1.5-.5 1.5-.4 23.8.2 25.6.4 1.2.4 2.5 0 2.8-.9.9-.9 13.5 0 13 .4-.3.4.5 0 1.7-2 5.2 3.1 18.7 9.2 24.5 8.4 7.9 27 10.4 37.4 5 1.8-.9 3.2-1.4 3.2-1 0 .4 2.2-1.6 5-4.5 8.9-9.2 8.8-8.4 8.8-74.1l.1-56.5-9.5.1c-5.2.1-9.8.4-10.2.8-.4.4-.8 24.9-.8 54.4-.1 29.5-.2 54.5-.3 55.4-.1 2.1-4.5 7.4-6.3 7.6-7.7.9-12.1-.7-13.9-5.1-1.1-2.5-1.4-14.7-1.4-58 0-48-.2-54.7-1.5-54.8-.8 0-5.5-.1-10.4-.2-8-.2-8.9 0-9.6 1.8zM1603.7 1477.8c-1.6.3-1.7 5.5-1.7 68.6v68.3l9.8-.1 9.7-.1v-47.8c0-26.2.3-47.7.6-47.7.4 0 1 1.7 1.4 3.7 1.1 5 .9 4.3 4.3 16.8 2.8 10.1 4.2 15.4 4.7 18 .2.5 1.4 4.7 2.8 9.2 1.4 4.5 2.3 8.4 2 8.6-.2.3.1 1.5.7 2.7.7 1.3 1.4 3.2 1.5 4.4.2 1.1 1.5 6.4 2.9 11.6 1.5 5.2 2.8 10.2 3 11 .2.8.9 3.4 1.5 5.6l1.1 4.1 9.7.1c5.4.1 10.5-.1 11.3-.3 1.3-.4 1.5-8.9 1.5-68.5 0-67.3 0-68-2-68.1-4.9-.3-15.7-.1-16.8.4-.9.3-1.2 9.6-1.1 40.1.1 21.8 0 39.6-.1 39.6s-1-3.3-2-7.3c-.9-3.9-3-12.2-4.7-18.2-1.6-6.1-3.4-12.6-3.9-14.5-.5-1.9-1.8-6.7-2.9-10.5-1.2-3.9-2.3-8.6-2.6-10.5-.3-1.9-.8-3.8-1.1-4.2-.2-.5-.6-1.6-.8-2.5-1.5-6.5-2.9-10.9-3.6-11.7-.7-.8-21.6-1.5-25.2-.8zM1693.4 1546l.1 68.5 10.8.2 10.7.2v-137.4H1693.3l.1 68.5zM1733.4 1478.2c-.5.7.1 6.4 1 11.8.3 1.4.7 4.3 1 6.5.6 4.7 1.2 8.8 3.1 20.5.8 4.7 1.7 10.3 2 12.5.3 2.3.7 5 .9 6.1.2 1.2.7 4.5 1.1 7.4.4 2.9.9 6.2 1.1 7.4.7 3.9 3.3 20.1 3.8 24.1.7 5.4 1.4 10.3 3.2 20.7.8 4.8 1.7 10.6 2 13 .3 2.4.7 4.8.9 5.4.2.7 5.8 1.1 16.3 1.1h16.1l.7-4.1c.3-2.2.8-5 1-6.1.2-1.1.7-4 1-6.5.3-2.5.8-5.4 1-6.5.3-1.1.7-4 1-6.5.2-2.5.6-5.6.9-7 .2-1.4 1.1-6.8 2-12 .8-5.2 1.8-11.1 2.1-13 .3-1.9.7-4.6.9-6 .2-1.4.6-4.3.9-6.5.3-2.2 1.2-8.5 2.1-14 .9-5.5 1.8-11.3 2-12.8.2-1.6.6-4 1-5.5.3-1.5.7-4.5 1-6.7.3-3.5 1.3-9.9 3.2-20.8.3-1.8 0-2.7-.9-2.8-1.4-.1-15.1-.1-17.8 0-.9.1-1.6 1.1-1.7 2.3 0 1.3-.3 4.3-.6 6.8-.6 4.3-1 6.9-2.3 14.2-.3 1.8-.7 4.9-.9 6.8-.1 1.9-.5 4.6-.9 6-.3 1.4-.8 4.7-1.1 7.5-.4 2.7-.8 6.3-1 8-.6 4.9-1.6 11.5-2.1 13.8-.2 1.2-.7 4.2-1 6.7-.3 2.5-.7 5.2-.9 6-.2.8-.7 3.9-1 6.9-.4 3-.9 6.3-1.1 7.5-.2 1.2-.7 4.8-1 8.1-.7 6.3-2.2 10.8-2.4 7-.2-3.7-1.1-9.9-2.5-18.5s-2.5-16-3-21.5c-.2-1.7-.6-4.1-.9-5.5-.3-1.4-.7-4.3-1-6.5-.2-2.2-1-7.2-1.6-11-.6-3.9-1.3-8.8-1.6-11-.3-2.2-.7-5.4-1-7-.2-1.7-.7-5-1-7.5-.3-2.5-.7-5.4-.9-6.5-.1-1.1-.6-4.4-1-7.3-.5-3.8-1.2-5.2-2.4-5.3-9.3-.4-19.4-.3-19.7.3zM1824.6 1478c-.1.3-.2 31.1-.2 68.5l.1 68 29.3.1 29.2.1v-9.8c0-8.7-.2-9.9-1.7-10h-34.9l-.1-19.9v-20H1875.6v-9.8l-.1-9.7-14.5-.1-14.5-.1v-37.8l17.5-.1c9.6-.1 17.8-.2 18.3-.3.4 0 .7-4.5.7-9.9v-9.7h-29.1c-16 0-29.2.2-29.3.5zM1906.7 1477.8c-1.6.2-2.6.8-2.4 1.5.2.7 0 2-.5 2.9-.5 1.1-.5 1.8.1 1.8s.6 1.1.1 2.9c-.4 1.6-.5 3.2-.2 3.5.9 1 .9 4.6 0 4.6-.5 0-.5.8.1 1.7.6 1.1.6 2.4 0 3.5-.5 1-.6 1.8-.2 1.8.4 0 .8 1.1.8 2.5s-.4 2.5-.8 2.5-.3.8.2 1.8c.6 1.1.6 2.4 0 3.5-.6.9-.6 1.7-.2 1.7 1 0 .9 7.2-.1 8.8-.4.7-.4 1.2.1 1.2.4 0 .8 1.1.8 2.5s-.4 2.5-.8 2.5-.3.8.2 1.8c.6 1.1.6 2.4 0 3.5-.6.9-.6 1.7-.2 1.7.4 0 .8 1.1.8 2.5s-.4 2.5-.8 2.5-.3.8.2 1.8c.6 1.1.6 2.4 0 3.5-.7 1.1-.7 1.7 0 1.7.6 0 .6 1.1.1 2.9-.4 1.6-.5 3.2-.2 3.5.9 1 .9 4.6 0 4.6-.5 0-.4.8.1 1.8.6 1.1.6 2.4 0 3.5-.6.9-.6 1.7-.2 1.7.4 0 .8 1.1.8 2.5s-.4 2.5-.8 2.5-.3.8.2 1.8c.6 1.1.6 2.4 0 3.5-.6.9-.6 1.7-.2 1.7 1 0 .9 7.2-.1 8.8-.4.7-.4 1.2.1 1.2.4 0 .8 1.1.8 2.5s-.4 2.5-.8 2.5-.3.8.2 1.8.6 2.4.2 3.1c-.5.7-.6 2.5-.4 3.9.2 1.5.4 3.6.3 4.7-.5 8.1-.6 8 11.4 8.1l10.8.2-.4-6.4c-.2-3.5.1-6.4.5-6.4s.3-.9-.3-1.9c-.5-1.1-.7-2.2-.3-2.4.5-.3.6-5.8.3-12.2-.3-6.4-.3-11.9-.1-12.1.2-.2.3-3.5.2-7.2l-.2-6.9 6.6.2c8.2.2 11.7 2.4 13.3 8.7.7 2.3 1.3 12.8 1.5 23.3.3 10.4.6 19.9.9 21 .5 1.8 1.4 2 11.7 2.1 11 .1 11.2 0 10.6-2-1.3-4.6-1.4-6.4-1.5-23.7-.2-23.9-2-31.4-9-37.6-1.4-1.2-3.1-2.3-3.9-2.3-.8 0 .9-2.1 3.7-4.8 6.9-6.4 8.5-11.7 8.6-27.6 0-14.2-.8-20.5-3.3-25.5-3.7-7.1-11.4-11.8-20.7-12.8-6.6-.6-33.4-1-37.7-.5zm35.7 21.5c3.5 2.3 4.7 7.8 4.5 20.2-.2 16.1-2.8 19.5-14.6 19.5h-6.2l-.3-10.6c-.2-5.8-.1-10.7.1-10.9.5-.5.4-14.5-.2-15.1-.2-.2-.2-1.5 0-2.7.4-2.2.9-2.3 7.3-2.2 4.5.1 7.7.7 9.4 1.8zM2072.7 1477.8c-1.6.3-1.7 5.6-1.7 68.6v68.3h22v-137.2h-9.3c-5.2 0-10.1.1-11 .3zM2111.6 1477.8c-1.5.3-1.6 1.6-1.4 10l.3 9.7 10 .1c5.5.1 10.5.2 11 .3.7 0 1 20.3 1 58.3v58.3l10.8.2 10.7.2.1-3.5c0-1.9.1-4.7.2-6.2 0-1.5-.2-3.5-.5-4.4-.4-.9-.4-1.9-.1-2.2.9-.9.9-38.6 0-38.6-.5 0-.5-.6-.1-1.2 1.1-1.7 1.1-14.8.1-14.8-.5 0-.5-.6-.1-1.2 1.1-1.7 1.1-14.8.1-14.8-.5 0-.5-.6-.1-1.2 1.1-1.7 1.1-14.8.1-14.8-.5 0-.5-.6 0-1.3.4-.6.7-3.9.6-7.2l-.2-6.1 10 .1c5.5 0 10.6-.3 11.2-.7 1.2-.8 2-18.7.8-18.9-2-.3-63.1-.3-64.5-.1zM2188.8 1477.8c-2.6.3-2.6.3-1.3 4.5 2.2 7 7.1 23.5 11 36.7 6.1 20.8 9.2 31.1 12.1 40.5 2.7 8.6 2.8 10 3 31.5.1 12.4.2 22.8.3 23.1.1.7 17.6 1 20.1.3 1.3-.3 1.5-3.7 1.6-22.6 0-21.8.3-26.2 1.6-28.4.4-.6.9-2.2 1.1-3.5.3-1.4 1.5-5.8 2.7-9.9 1.2-4.1 2.1-7.5 2-7.5-.1 0 .4-1.4 1-3 .7-1.7 1.3-3.7 1.5-4.6.2-.9 1.6-5.4 3-10 1.5-4.6 2.9-9.1 3-9.9.1-.8 1-4.2 2.1-7.5 1-3.3 1.9-6.5 1.9-7 0-.6.3-1.5.7-2 .3-.6 1.6-4.6 2.8-9 1.2-4.4 2.6-8.8 3.1-9.8.7-1.2.6-1.7-.3-1.8-1.7-.1-16.8-.1-18.8 0-1.3.1-5.7 13.6-7.5 22.9-.2 1.3-2 8-3.8 15-1.9 7-4 15.1-4.7 17.9-.6 2.9-1.6 5-2.1 4.7-.5-.3-.7-1-.4-1.5.4-.5.3-1.5-.2-2.2-.4-.6-.8-1.7-.9-2.2-.4-1.7-9.3-35.8-10.3-39.3-.5-1.8-1-3.3-1-3.5.1-.5-1.3-6.4-2.2-9.2l-.9-3h-8.7c-4.9 0-10 .1-11.5.3z"/></svg>